<svg width="162" height="158" viewBox="0 0 162 158" fill="none" xmlns="http://www.w3.org/2000/svg">
<path d="M30.375 83.9375H70.875V93.8125H30.375V83.9375Z" fill="black"/>
<path d="M15.1875 93.8125C17.9834 93.8125 20.25 91.6019 20.25 88.875C20.25 86.1481 17.9834 83.9375 15.1875 83.9375C12.3916 83.9375 10.125 86.1481 10.125 88.875C10.125 91.6019 12.3916 93.8125 15.1875 93.8125Z" fill="black"/>
<path d="M65.8125 74.0625C68.6084 74.0625 70.875 71.8519 70.875 69.125C70.875 66.3981 68.6084 64.1875 65.8125 64.1875C63.0166 64.1875 60.75 66.3981 60.75 69.125C60.75 71.8519 63.0166 74.0625 65.8125 74.0625Z" fill="black"/>
<path d="M10.125 64.1875H50.625V74.0625H10.125V64.1875ZM30.375 44.4375H70.875V54.3125H30.375V44.4375Z" fill="black"/>
<path d="M15.1875 54.3125C17.9834 54.3125 20.25 52.1019 20.25 49.375C20.25 46.6481 17.9834 44.4375 15.1875 44.4375C12.3916 44.4375 10.125 46.6481 10.125 49.375C10.125 52.1019 12.3916 54.3125 15.1875 54.3125Z" fill="black"/>
<path d="M151.875 141.213L114.412 104.675C122.006 94.8 126.562 82.4563 126.562 69.125C126.562 36.5375 99.225 9.875 65.8125 9.875C49.1062 9.875 33.4125 16.2938 21.7687 28.6375L29.3625 35.55C38.475 25.1812 51.6375 19.75 65.8125 19.75C93.6562 19.75 116.437 41.9688 116.437 69.125C116.437 96.2812 93.6562 118.5 65.8125 118.5C50.625 118.5 36.45 112.081 26.8312 100.725L19.2375 107.144C30.375 120.475 47.5875 128.375 65.8125 128.375C82.0125 128.375 96.6937 121.956 107.831 112.081L144.787 148.125L151.875 141.213Z" fill="black"/>
</svg>
