<svg width="163" height="165" viewBox="0 0 163 165" fill="none" xmlns="http://www.w3.org/2000/svg">
<path d="M114.655 65.4276L84.0927 47.1229C83.3077 46.6521 82.4118 46.4041 81.4993 46.405C80.5868 46.4059 79.6914 46.6557 78.9073 47.128L48.3448 65.4327C47.5828 65.8877 46.9512 66.536 46.5126 67.3138C46.074 68.0915 45.8434 68.9716 45.8438 69.8671V105.445C45.8438 107.271 46.7963 108.957 48.3448 109.88L78.9073 128.184C79.6904 128.66 80.5866 128.912 81.5 128.912C82.4134 128.912 83.3096 128.66 84.0927 128.184L114.655 109.88C115.417 109.425 116.049 108.776 116.487 107.999C116.926 107.221 117.157 106.341 117.156 105.445V69.8671C117.156 68.9709 116.926 68.0901 116.487 67.3116C116.049 66.5331 115.417 65.8837 114.655 65.4276ZM106.969 102.506L81.5 117.758L56.0312 102.506V72.8062L81.5 57.554L106.969 72.8062V102.506Z" fill="black"/>
<path d="M30.5625 104.074V57.0797L62.1437 38.1872L56.9634 29.3081L22.876 49.7011C22.114 50.1573 21.4825 50.8066 21.0439 51.5851C20.6053 52.3636 20.3748 53.2444 20.375 54.1406V104.074C17.4042 105.134 14.8302 107.098 13.0062 109.698C11.1822 112.298 10.1976 115.405 10.1875 118.594C10.1875 127.122 17.0437 134.062 25.4688 134.062C33.8938 134.062 40.75 127.122 40.75 118.594C40.7399 115.405 39.7553 112.298 37.9313 109.698C36.1073 107.098 33.5333 105.134 30.5625 104.074ZM25.4688 123.75C24.1572 123.691 22.9188 123.121 22.0115 122.161C21.1042 121.2 20.5978 119.923 20.5978 118.594C20.5978 117.265 21.1042 115.987 22.0115 115.027C22.9188 114.066 24.1572 113.497 25.4688 113.438C26.7803 113.497 28.0187 114.066 28.926 115.027C29.8333 115.987 30.3397 117.265 30.3397 118.594C30.3397 119.923 29.8333 121.2 28.926 122.161C28.0187 123.121 26.7803 123.691 25.4688 123.75ZM137.531 103.125C129.106 103.125 122.25 110.065 122.25 118.594C122.25 120.414 122.617 122.136 123.192 123.76L81.5 148.696L48.8796 129.185L43.6993 138.064L78.9073 159.122C79.6914 159.594 80.5868 159.844 81.4993 159.845C82.4118 159.846 83.3077 159.598 84.0927 159.127L129.733 131.825C132.025 133.212 134.674 134.062 137.531 134.062C145.956 134.062 152.812 127.122 152.812 118.594C152.812 110.065 145.956 103.125 137.531 103.125ZM137.531 123.75C136.22 123.691 134.981 123.121 134.074 122.161C133.167 121.2 132.66 119.923 132.66 118.594C132.66 117.265 133.167 115.987 134.074 115.027C134.981 114.066 136.22 113.497 137.531 113.438C138.843 113.497 140.081 114.066 140.989 115.027C141.896 115.987 142.402 117.265 142.402 118.594C142.402 119.923 141.896 121.2 140.989 122.161C140.081 123.121 138.843 123.691 137.531 123.75ZM81.5 36.0938C85.2235 36.0938 88.5905 34.6861 91.2443 32.4431L132.438 57.0848V92.8125H142.625V54.1406C142.625 53.2444 142.395 52.3636 141.956 51.5851C141.517 50.8066 140.886 50.1573 140.124 49.7011L96.4858 23.6002C96.6692 22.6359 96.7812 21.6459 96.7812 20.625C96.7812 12.0966 89.9251 5.15625 81.5 5.15625C73.0749 5.15625 66.2188 12.0966 66.2188 20.625C66.2188 29.1534 73.0749 36.0938 81.5 36.0938ZM81.5 15.4688C82.5089 15.4677 83.4954 15.7697 84.3347 16.3365C85.174 16.9032 85.8283 17.7093 86.2148 18.6526C86.6014 19.5959 86.7028 20.6341 86.5062 21.6358C86.3096 22.6375 85.8239 23.5577 85.1105 24.2798C84.3971 25.002 83.4881 25.4936 82.4986 25.6926C81.509 25.8916 80.4834 25.789 79.5515 25.3977C78.6196 25.0064 77.8233 24.344 77.2634 23.4945C76.7036 22.6449 76.4052 21.6463 76.4062 20.625C76.4062 17.7788 78.6933 15.4688 81.5 15.4688Z" fill="black"/>
</svg>
