<svg width="133" height="132" viewBox="0 0 133 132" fill="none" xmlns="http://www.w3.org/2000/svg">
<path d="M93.3574 52.5512L68.6891 37.9984C68.0555 37.6241 67.3324 37.4269 66.5959 37.4276C65.8594 37.4284 65.1367 37.6269 64.5037 38.0025L39.8354 52.5553C39.2204 52.9169 38.7106 53.4324 38.3566 54.0507C38.0026 54.669 37.8165 55.3687 37.8167 56.0807V84.3664C37.8167 85.8176 38.5856 87.1581 39.8354 87.8919L64.5037 102.445C65.1358 102.823 65.8592 103.023 66.5964 103.023C67.3337 103.023 68.057 102.823 68.6891 102.445L93.3574 87.8919C93.9725 87.5302 94.4822 87.0147 94.8363 86.3964C95.1903 85.7781 95.3764 85.0784 95.3761 84.3664V56.0807C95.3763 55.3682 95.1902 54.668 94.8362 54.049C94.4822 53.4301 93.9725 52.9138 93.3574 52.5512ZM87.1533 82.0298L66.5964 94.1558L46.0395 82.0298V58.4174L66.5964 46.2914L87.1533 58.4174V82.0298Z" fill="black"/>
<path d="M25.4826 83.276V45.9143L50.9732 30.8941L46.7919 23.835L19.2785 40.0481C18.6634 40.4107 18.1537 40.927 17.7997 41.5459C17.4457 42.1649 17.2596 42.8651 17.2598 43.5776V83.276C14.8619 84.1188 12.7843 85.6807 11.3121 87.7475C9.8399 89.8144 9.0452 92.2848 9.03705 94.8199C9.03705 101.6 14.571 107.118 21.3712 107.118C28.1714 107.118 33.7054 101.6 33.7054 94.8199C33.6972 92.2848 32.9025 89.8144 31.4303 87.7475C29.9581 85.6807 27.8805 84.1188 25.4826 83.276ZM21.3712 98.9192C20.3126 98.872 19.3131 98.4195 18.5807 97.6559C17.8483 96.8923 17.4396 95.8764 17.4396 94.8199C17.4396 93.7633 17.8483 92.7474 18.5807 91.9838C19.3131 91.2202 20.3126 90.7677 21.3712 90.7205C22.4298 90.7677 23.4293 91.2202 24.1617 91.9838C24.8941 92.7474 25.3028 93.7633 25.3028 94.8199C25.3028 95.8764 24.8941 96.8923 24.1617 97.6559C23.4293 98.4195 22.4298 98.872 21.3712 98.9192ZM111.822 82.5217C105.021 82.5217 99.4875 88.0395 99.4875 94.8199C99.4875 96.2669 99.7835 97.6361 100.248 98.9274L66.5964 118.752L40.2671 103.24L36.0858 110.299L64.5037 127.041C65.1367 127.417 65.8594 127.615 66.5959 127.616C67.3324 127.617 68.0555 127.419 68.6891 127.045L105.527 105.339C107.377 106.442 109.515 107.118 111.822 107.118C118.622 107.118 124.156 101.6 124.156 94.8199C124.156 88.0395 118.622 82.5217 111.822 82.5217ZM111.822 98.9192C110.763 98.872 109.764 98.4195 109.031 97.6559C108.299 96.8923 107.89 95.8764 107.89 94.8199C107.89 93.7633 108.299 92.7474 109.031 91.9838C109.764 91.2202 110.763 90.7677 111.822 90.7205C112.88 90.7677 113.88 91.2202 114.612 91.9838C115.344 92.7474 115.753 93.7633 115.753 94.8199C115.753 95.8764 115.344 96.8923 114.612 97.6559C113.88 98.4195 112.88 98.872 111.822 98.9192ZM66.5964 29.2298C69.6018 29.2298 72.3195 28.1107 74.4615 26.3274L107.71 45.9184V74.323H115.933V43.5776C115.933 42.8651 115.747 42.1649 115.393 41.5459C115.039 40.927 114.529 40.4107 113.914 40.0481L78.6921 19.297C78.8401 18.5304 78.9306 17.7433 78.9306 16.9317C78.9306 10.1513 73.3967 4.63353 66.5964 4.63353C59.7962 4.63353 54.2623 10.1513 54.2623 16.9317C54.2623 23.712 59.7962 29.2298 66.5964 29.2298ZM66.5964 12.8323C67.4107 12.8315 68.207 13.0716 68.8844 13.5221C69.5618 13.9727 70.09 14.6136 70.402 15.3635C70.714 16.1135 70.7958 16.9389 70.6372 17.7353C70.4785 18.5317 70.0864 19.2632 69.5106 19.8374C68.9348 20.4115 68.2011 20.8024 67.4024 20.9606C66.6037 21.1188 65.7759 21.0372 65.0237 20.7261C64.2715 20.415 63.6288 19.8884 63.1769 19.213C62.725 18.5375 62.4842 17.7436 62.485 16.9317C62.485 14.6688 64.3311 12.8323 66.5964 12.8323Z" fill="black"/>
</svg>
