<svg width="194" height="228" viewBox="0 0 194 228" fill="none" xmlns="http://www.w3.org/2000/svg">
<path d="M60.625 42.75H194V171H60.625V42.75ZM181.875 156.75V57H72.75V156.75H181.875ZM12.125 114V99.75H48.5V114H12.125ZM0 85.5V71.25H48.5V85.5H0ZM24.25 142.5V128.25H48.5V142.5H24.25ZM169.75 71.25V85.5H84.875V71.25H169.75ZM133.375 142.5V99.75H169.75V142.5H133.375ZM145.5 114V128.25H157.625V114H145.5ZM121.25 128.25V142.5H84.875V128.25H121.25ZM121.25 99.75V114H84.875V99.75H121.25Z" fill="black"/>
</svg>
