<svg width="128" height="136" viewBox="0 0 128 136" fill="none" xmlns="http://www.w3.org/2000/svg">
<path d="M23.9946 106.25C24.0198 105.303 23.8661 104.361 23.5425 103.478C23.219 102.596 22.7321 101.791 22.1108 101.112C21.4895 100.433 20.7464 99.8933 19.9253 99.5247C19.1043 99.1561 18.222 98.9662 17.3306 98.9662C16.4393 98.9662 15.557 99.1561 14.7359 99.5247C13.9148 99.8933 13.1717 100.433 12.5504 101.112C11.9291 101.791 11.4422 102.596 11.1187 103.478C10.7951 104.361 10.6414 105.303 10.6666 106.25C10.7157 108.093 11.4393 109.843 12.6837 111.129C13.9281 112.414 15.5951 113.133 17.3306 113.133C19.0661 113.133 20.7331 112.414 21.9775 111.129C23.2219 109.843 23.9455 108.093 23.9946 106.25ZM64.1013 102H35.9999L35.4559 102.04C34.4519 102.186 33.5378 102.733 32.8982 103.568C32.2587 104.403 31.9414 105.465 32.0105 106.54C32.0795 107.614 32.5298 108.62 33.2704 109.355C34.0109 110.09 34.9865 110.5 35.9999 110.5H65.6746C64.8357 107.743 64.3075 104.889 64.1013 102ZM73.6479 73.6666H35.9999C34.9865 73.6662 34.0109 73.2572 33.2704 72.522C32.5298 71.7869 32.0795 70.7805 32.0105 69.7062C31.9414 68.6319 32.2587 67.5698 32.8982 66.7345C33.5378 65.8992 34.4519 65.353 35.4559 65.2062L35.9999 65.1722H85.3013C80.9117 67.1256 76.947 70.0169 73.6533 73.6666H73.6479ZM23.9946 69.4166C24.0198 68.4699 23.8661 67.5274 23.5425 66.645C23.219 65.7625 22.7321 64.958 22.1108 64.2789C21.4895 63.5998 20.7464 63.06 19.9253 62.6914C19.1043 62.3228 18.222 62.1329 17.3306 62.1329C16.4393 62.1329 15.557 62.3228 14.7359 62.6914C13.9148 63.06 13.1717 63.5998 12.5504 64.2789C11.9291 64.958 11.4422 65.7625 11.1187 66.645C10.7951 67.5274 10.6414 68.4699 10.6666 69.4166C10.7157 71.2597 11.4393 73.0099 12.6837 74.2952C13.9281 75.5805 15.5951 76.2996 17.3306 76.2996C19.0661 76.2996 20.7331 75.5805 21.9775 74.2952C23.2219 73.0099 23.9455 71.2597 23.9946 69.4166ZM23.9946 32.5832C24.0198 31.6365 23.8661 30.6941 23.5425 29.8116C23.219 28.9292 22.7321 28.1246 22.1108 27.4456C21.4895 26.7665 20.7464 26.2267 19.9253 25.8581C19.1043 25.4895 18.222 25.2996 17.3306 25.2996C16.4393 25.2996 15.557 25.4895 14.7359 25.8581C13.9148 26.2267 13.1717 26.7665 12.5504 27.4456C11.9291 28.1246 11.4422 28.9292 11.1187 29.8116C10.7951 30.6941 10.6414 31.6365 10.6666 32.5832C10.7157 34.4264 11.4393 36.1766 12.6837 37.4619C13.9281 38.7472 15.5951 39.4662 17.3306 39.4662C19.0661 39.4662 20.7331 38.7472 21.9775 37.4619C23.2219 36.1766 23.9455 34.4264 23.9946 32.5832ZM113.333 28.3332H35.9999L35.4559 28.3729C34.4519 28.5197 33.5378 29.0659 32.8982 29.9012C32.2587 30.7365 31.9414 31.7986 32.0105 32.8729C32.0795 33.9472 32.5298 34.9536 33.2704 35.6887C34.0109 36.4238 34.9865 36.8329 35.9999 36.8332H113.333L113.877 36.7992C114.89 36.6628 115.815 36.1201 116.463 35.2825C117.112 34.4448 117.434 33.3755 117.365 32.2935C117.295 31.2115 116.839 30.1987 116.089 29.4624C115.34 28.7262 114.354 28.3222 113.333 28.3332ZM128 99.1666C128 95.0737 127.241 91.0209 125.767 87.2396C124.293 83.4583 122.132 80.0225 119.408 77.1284C116.685 74.2343 113.451 71.9386 109.892 70.3723C106.333 68.806 102.519 67.9999 98.6666 67.9999C94.8145 67.9999 91.0001 68.806 87.4412 70.3723C83.8823 71.9386 80.6487 74.2343 77.9248 77.1284C75.201 80.0225 73.0403 83.4583 71.5661 87.2396C70.092 91.0209 69.3333 95.0737 69.3333 99.1666C69.3333 107.432 72.4237 115.36 77.9248 121.205C83.4259 127.05 90.8869 130.333 98.6666 130.333C106.446 130.333 113.907 127.05 119.408 121.205C124.909 115.36 128 107.432 128 99.1666ZM101.333 102L101.339 116.184C101.339 116.935 101.058 117.656 100.558 118.187C100.057 118.718 99.3792 119.017 98.6719 119.017C97.9647 119.017 97.2864 118.718 96.7863 118.187C96.2862 117.656 96.0053 116.935 96.0053 116.184V102H82.6453C81.938 102 81.2598 101.701 80.7597 101.17C80.2596 100.639 79.9786 99.918 79.9786 99.1666C79.9786 98.4151 80.2596 97.6944 80.7597 97.1631C81.2598 96.6317 81.938 96.3332 82.6453 96.3332H95.9999V82.1666C95.9999 81.4151 96.2809 80.6944 96.781 80.1631C97.2811 79.6317 97.9594 79.3332 98.6666 79.3332C99.3739 79.3332 100.052 79.6317 100.552 80.1631C101.052 80.6944 101.333 81.4151 101.333 82.1666V96.3332H114.651C115.358 96.3332 116.036 96.6317 116.536 97.1631C117.036 97.6944 117.317 98.4151 117.317 99.1666C117.317 99.918 117.036 100.639 116.536 101.17C116.036 101.701 115.358 102 114.651 102H101.333Z" fill="black"/>
</svg>
