<svg width="243" height="250" viewBox="0 0 243 250" fill="none" xmlns="http://www.w3.org/2000/svg">
<path d="M24.5 120.948C24.5 117.546 26.6106 114.788 29.2143 114.788H85.7857C88.3894 114.788 90.5 117.546 90.5 120.948V238.002L74 222.6L57.5 238.002L41 222.6L24.5 238.002V120.948Z" fill="#47586E" stroke="black" stroke-width="5.14286" stroke-linecap="round" stroke-linejoin="round"/>
<path d="M43.3571 170.234H71.6428" stroke="white" stroke-width="5.14286" stroke-linecap="round" stroke-linejoin="round"/>
<path d="M43.3571 194.876H71.6428" stroke="white" stroke-width="5.14286" stroke-linecap="round" stroke-linejoin="round"/>
<path d="M43.3571 145.591H71.6428" stroke="white" stroke-width="5.14286" stroke-linecap="round" stroke-linejoin="round"/>
<path d="M167.295 137.679H160.312L157.837 135.032C163.361 127.914 167.398 119.53 169.66 110.48C171.921 101.43 172.351 91.9369 170.919 82.6808C166.764 55.4269 146.257 33.6629 121.507 30.3297C112.806 29.1089 103.968 30.1118 95.6702 33.2619C87.3722 36.4119 79.8339 41.6256 73.6321 48.5039C67.4304 55.3822 62.7295 63.7429 59.8893 72.9461C57.0491 82.1493 56.1448 91.9512 57.2456 101.602C60.2509 129.052 79.8742 151.796 104.447 156.404C112.793 157.992 121.352 157.515 129.512 155.007C137.672 152.499 145.232 148.021 151.649 141.894L154.036 144.639V152.384L191.603 194.049C195.227 198.069 201.149 198.069 204.773 194.049C208.397 190.03 208.397 183.462 204.773 179.442L167.295 137.679ZM114.259 137.679C92.2492 137.679 74.4822 117.974 74.4822 93.5628C74.4822 69.1519 92.2492 49.4467 114.259 49.4467C136.269 49.4467 154.036 69.1519 154.036 93.5628C154.036 117.974 136.269 137.679 114.259 137.679Z" fill="black"/>
</svg>
