<svg width="130" height="158" viewBox="0 0 130 158" fill="none" xmlns="http://www.w3.org/2000/svg">
<g clip-path="url(#clip0_69_46)">
<path d="M83.7501 85.519C77.3215 85.519 67.3036 87.7323 59.6429 92.0288C51.9822 87.6672 41.9644 85.519 35.5358 85.519C23.9108 85.519 0.714355 92.5496 0.714355 106.676V124.578H118.571V106.676C118.571 92.5496 95.3751 85.519 83.7501 85.519ZM62.3215 114.813H8.75007V106.676C8.75007 103.16 22.4644 95.2837 35.5358 95.2837C48.6072 95.2837 62.3215 103.16 62.3215 106.676V114.813ZM110.536 114.813H70.3572V106.676C70.3572 103.681 69.2858 101.077 67.5715 98.7338C72.2858 96.7809 78.0715 95.2837 83.7501 95.2837C96.8215 95.2837 110.536 103.16 110.536 106.676V114.813ZM35.5358 79.0093C45.8751 79.0093 54.2858 68.7889 54.2858 56.2251C54.2858 43.6612 45.8751 33.4409 35.5358 33.4409C25.1965 33.4409 16.7858 43.6612 16.7858 56.2251C16.7858 68.7889 25.1965 79.0093 35.5358 79.0093ZM35.5358 43.2056C41.4286 43.2056 46.2501 49.0643 46.2501 56.2251C46.2501 63.3858 41.4286 69.2446 35.5358 69.2446C29.6429 69.2446 24.8215 63.3858 24.8215 56.2251C24.8215 49.0643 29.6429 43.2056 35.5358 43.2056ZM83.7501 79.0093C94.0894 79.0093 102.5 68.7889 102.5 56.2251C102.5 43.6612 94.0894 33.4409 83.7501 33.4409C73.4108 33.4409 65.0001 43.6612 65.0001 56.2251C65.0001 68.7889 73.4108 79.0093 83.7501 79.0093ZM83.7501 43.2056C89.6429 43.2056 94.4644 49.0643 94.4644 56.2251C94.4644 63.3858 89.6429 69.2446 83.7501 69.2446C77.8572 69.2446 73.0358 63.3858 73.0358 56.2251C73.0358 49.0643 77.8572 43.2056 83.7501 43.2056Z" fill="black"/>
</g>
<defs>
<clipPath id="clip0_69_46">
<rect width="128.571" height="156.234" fill="white" transform="translate(0.714355 0.892334)"/>
</clipPath>
</defs>
</svg>
