<svg width="65" height="65" viewBox="0 0 65 65" fill="none" xmlns="http://www.w3.org/2000/svg">
<path d="M42.0123 37.8101H39.9136L39.1698 37.0818C40.83 35.1234 42.0433 32.8166 42.723 30.3265C43.4027 27.8363 43.5319 25.2244 43.1014 22.6777C41.8529 15.1789 35.6897 9.19064 28.2514 8.27352C25.6364 7.9376 22.9803 8.21356 20.4864 9.08028C17.9926 9.94701 15.727 11.3815 13.8632 13.2741C11.9993 15.1666 10.5865 17.467 9.73295 19.9992C8.87936 22.5314 8.60758 25.2284 8.93841 27.8836C9.84163 35.4364 15.7391 41.6944 23.1243 42.9621C25.6325 43.3993 28.2048 43.268 30.6572 42.5779C33.1096 41.8877 35.3815 40.6557 37.3102 38.97L38.0275 39.7253V41.8562L49.3177 53.3202C50.4069 54.4261 52.1868 54.4261 53.276 53.3202C54.3652 52.2142 54.3652 50.407 53.276 49.301L42.0123 37.8101ZM26.0731 37.8101C19.4583 37.8101 14.1187 32.3883 14.1187 25.6718C14.1187 18.9552 19.4583 13.5335 26.0731 13.5335C32.6878 13.5335 38.0275 18.9552 38.0275 25.6718C38.0275 32.3883 32.6878 37.8101 26.0731 37.8101Z" fill="black"/>
</svg>
