<svg width="65" height="66" viewBox="0 0 65 66" fill="none" xmlns="http://www.w3.org/2000/svg">
<path d="M41.9932 38.5725H39.8946L39.1507 37.8442C40.8109 35.8858 42.0243 33.579 42.704 31.0889C43.3837 28.5988 43.5129 25.9869 43.0824 23.4401C41.8338 15.9413 35.6707 9.95309 28.2324 9.03597C25.6173 8.70005 22.9612 8.97601 20.4674 9.84273C17.9735 10.7095 15.708 12.144 13.8441 14.0365C11.9803 15.929 10.5675 18.2294 9.71391 20.7617C8.86032 23.2939 8.58854 25.9908 8.91937 28.6461C9.82259 36.1988 15.7201 42.4568 23.1053 43.7246C25.6134 44.1617 28.1858 44.0305 30.6382 43.3403C33.0906 42.6502 35.3624 41.4182 37.2912 39.7324L38.0084 40.4877V42.6187L49.2987 54.0826C50.3879 55.1886 52.1678 55.1886 53.2569 54.0826C54.3461 52.9767 54.3461 51.1694 53.2569 50.0635L41.9932 38.5725ZM26.054 38.5725C19.4392 38.5725 14.0996 33.1508 14.0996 26.4342C14.0996 19.7177 19.4392 14.2959 26.054 14.2959C32.6688 14.2959 38.0084 19.7177 38.0084 26.4342C38.0084 33.1508 32.6688 38.5725 26.054 38.5725Z" fill="black"/>
</svg>
