<svg width="65" height="66" viewBox="0 0 65 66" fill="none" xmlns="http://www.w3.org/2000/svg">
<path d="M41.9932 38.0479H39.8946L39.1507 37.3196C40.8109 35.3612 42.0243 33.0544 42.704 30.5642C43.3837 28.0741 43.5129 25.4622 43.0824 22.9155C41.8338 15.4167 35.6707 9.42843 28.2324 8.51131C25.6173 8.17539 22.9612 8.45135 20.4674 9.31808C17.9735 10.1848 15.708 11.6193 13.8441 13.5118C11.9803 15.4044 10.5675 17.7048 9.71391 20.237C8.86032 22.7692 8.58854 25.4662 8.91937 28.1214C9.82259 35.6742 15.7201 41.9322 23.1053 43.1999C25.6134 43.6371 28.1858 43.5058 30.6382 42.8157C33.0906 42.1255 35.3624 40.8935 37.2912 39.2078L38.0084 39.963V42.094L49.2987 53.558C50.3879 54.6639 52.1678 54.6639 53.2569 53.558C54.3461 52.452 54.3461 50.6448 53.2569 49.5388L41.9932 38.0479ZM26.054 38.0479C19.4392 38.0479 14.0996 32.6261 14.0996 25.9096C14.0996 19.193 19.4392 13.7713 26.054 13.7713C32.6688 13.7713 38.0084 19.193 38.0084 25.9096C38.0084 32.6261 32.6688 38.0479 26.054 38.0479Z" fill="black"/>
</svg>
