<svg width="65" height="66" viewBox="0 0 65 66" fill="none" xmlns="http://www.w3.org/2000/svg">
<path d="M42.0123 38.209H39.9136L39.1698 37.4807C40.83 35.5223 42.0433 33.2155 42.723 30.7254C43.4027 28.2352 43.5319 25.6233 43.1014 23.0766C41.8529 15.5778 35.6897 9.58956 28.2514 8.67244C25.6364 8.33653 22.9803 8.61249 20.4864 9.47921C17.9926 10.3459 15.727 11.7804 13.8632 13.673C11.9993 15.5655 10.5865 17.8659 9.73295 20.3981C8.87936 22.9304 8.60758 25.6273 8.93841 28.2826C9.84163 35.8353 15.7391 42.0933 23.1243 43.3611C25.6325 43.7982 28.2048 43.667 30.6572 42.9768C33.1096 42.2867 35.3815 41.0546 37.3102 39.3689L38.0275 40.1242V42.2551L49.3177 53.7191C50.4069 54.825 52.1868 54.825 53.276 53.7191C54.3652 52.6132 54.3652 50.8059 53.276 49.7L42.0123 38.209ZM26.0731 38.209C19.4583 38.209 14.1187 32.7872 14.1187 26.0707C14.1187 19.3542 19.4583 13.9324 26.0731 13.9324C32.6878 13.9324 38.0275 19.3542 38.0275 26.0707C38.0275 32.7872 32.6878 38.209 26.0731 38.209Z" fill="black"/>
</svg>
