<svg width="65" height="66" viewBox="0 0 65 66" fill="none" xmlns="http://www.w3.org/2000/svg">
<path d="M42.0316 38.7608H39.9329L39.1891 38.0325C40.8493 36.0741 42.0626 33.7673 42.7423 31.2771C43.422 28.787 43.5512 26.1751 43.1207 23.6283C41.8722 16.1296 35.709 10.1413 28.2707 9.2242C25.6557 8.88828 22.9996 9.16424 20.5057 10.031C18.0119 10.8977 15.7463 12.3322 13.8825 14.2247C12.0186 16.1173 10.6058 18.4177 9.75224 20.9499C8.89865 23.4821 8.62687 26.179 8.9577 28.8343C9.86092 36.3871 15.7584 42.645 23.1436 43.9128C25.6518 44.3499 28.2241 44.2187 30.6765 43.5286C33.1289 42.8384 35.4008 41.6064 37.3295 39.9207L38.0468 40.6759V42.8069L49.337 54.2709C50.4262 55.3768 52.2061 55.3768 53.2953 54.2709C54.3844 53.1649 54.3844 51.3577 53.2953 50.2517L42.0316 38.7608ZM26.0923 38.7608C19.4776 38.7608 14.1379 33.339 14.1379 26.6225C14.1379 19.9059 19.4776 14.4841 26.0923 14.4841C32.7071 14.4841 38.0468 19.9059 38.0468 26.6225C38.0468 33.339 32.7071 38.7608 26.0923 38.7608Z" fill="black"/>
</svg>
