<svg width="124" height="136" viewBox="0 0 124 136" fill="none" xmlns="http://www.w3.org/2000/svg">
<path d="M56.8333 57.5166L52.1833 52.5582C51.1499 51.5194 49.922 51.0226 48.4994 51.0679C47.0803 51.117 45.8971 51.661 44.9499 52.6999C44.0027 53.7388 43.5291 55.061 43.5291 56.6666C43.5291 58.2721 44.0027 59.5944 44.9499 60.6332L58.3833 75.3666C59.4166 76.4999 60.6221 77.0666 61.9999 77.0666C63.3777 77.0666 64.5832 76.4999 65.6166 75.3666L79.1791 60.4916C80.1263 59.4527 80.5793 58.1531 80.5379 56.5929C80.4931 55.0365 79.9971 53.7388 79.0499 52.6999C78.1027 51.661 76.9195 51.1416 75.5004 51.1416C74.0779 51.1416 72.8499 51.661 71.8166 52.6999L67.1666 57.5166V39.5249C67.1666 37.9194 66.6723 36.5971 65.6838 35.5583C64.6918 34.5194 63.4638 33.9999 61.9999 33.9999C60.536 33.9999 59.3098 34.542 58.3213 35.6263C57.3293 36.7143 56.8333 38.061 56.8333 39.6666V57.5166ZM41.3333 96.3332H82.7957C84.2596 96.3332 85.4652 95.7892 86.4124 94.7012C87.3596 93.617 87.8332 92.2721 87.8332 90.6666C87.8332 89.061 87.3372 87.7142 86.3452 86.6262C85.3567 85.542 84.1305 84.9999 82.6666 84.9999H41.2041C39.7402 84.9999 38.5346 85.542 37.5874 86.6262C36.6402 87.7142 36.1666 89.061 36.1666 90.6666C36.1666 92.2721 36.6609 93.617 37.6494 94.7012C38.6414 95.7892 39.8694 96.3332 41.3333 96.3332ZM61.9999 124.667C54.8527 124.667 48.136 123.178 41.8499 120.201C35.5638 117.228 30.0958 113.192 25.4458 108.092C20.7958 102.992 17.1154 96.9944 14.4046 90.0999C11.6904 83.2055 10.3333 75.8388 10.3333 67.9999C10.3333 60.161 11.6904 52.7944 14.4046 45.8999C17.1154 39.0055 20.7958 33.0083 25.4458 27.9083C30.0958 22.8083 35.5638 18.7698 41.8499 15.7929C48.136 12.8198 54.8527 11.3333 61.9999 11.3333C69.1471 11.3333 75.8638 12.8198 82.1499 15.7929C88.436 18.7698 93.9041 22.8083 98.5541 27.9083C103.204 33.0083 106.884 39.0055 109.595 45.8999C112.309 52.7944 113.667 60.161 113.667 67.9999C113.667 75.8388 112.309 83.2055 109.595 90.0999C106.884 96.9944 103.204 102.992 98.5541 108.092C93.9041 113.192 88.436 117.228 82.1499 120.201C75.8638 123.178 69.1471 124.667 61.9999 124.667ZM61.9999 113.333C73.4527 113.333 83.2056 108.919 91.2588 100.09C99.3084 91.2578 103.333 80.561 103.333 67.9999C103.333 55.4388 99.3084 44.742 91.2588 35.9096C83.2056 27.0809 73.4527 22.6666 61.9999 22.6666C50.5471 22.6666 40.7959 27.0809 32.7463 35.9096C24.6931 44.742 20.6666 55.4388 20.6666 67.9999C20.6666 80.561 24.6931 91.2578 32.7463 100.09C40.7959 108.919 50.5471 113.333 61.9999 113.333Z" fill="black"/>
</svg>
