<svg width="152" height="146" viewBox="0 0 152 146" fill="none" xmlns="http://www.w3.org/2000/svg">
<path d="M25.3333 127.75C21.85 127.75 18.8691 126.56 16.3906 124.179C13.908 121.794 12.6666 118.929 12.6666 115.583V30.4167C12.6666 27.0708 13.908 24.2056 16.3906 21.8209C18.8691 19.4403 21.85 18.25 25.3333 18.25H126.667C130.15 18.25 133.133 19.4403 135.616 21.8209C138.094 24.2056 139.333 27.0708 139.333 30.4167V115.583C139.333 118.929 138.094 121.794 135.616 124.179C133.133 126.56 130.15 127.75 126.667 127.75H25.3333ZM31.6666 103.417H63.3333V91.25H31.6666V103.417ZM92.15 91.25L123.5 61.1375L114.475 52.4688L92.15 74.0646L83.125 65.3958L74.2583 74.0646L92.15 91.25ZM31.6666 79.0833H63.3333V66.9167H31.6666V79.0833ZM31.6666 54.75H63.3333V42.5833H31.6666V54.75Z" fill="black"/>
</svg>
