<svg width="64" height="69" viewBox="0 0 64 69" fill="none" xmlns="http://www.w3.org/2000/svg">
<path d="M29.3334 48.875H34.6667V37.375H45.3334V31.625H34.6667V20.125H29.3334V31.625H18.6667V37.375H29.3334V48.875ZM32 63.25C28.3112 63.25 24.8445 62.4948 21.6 60.9845C18.3556 59.4761 15.5334 57.4281 13.1334 54.8406C10.7334 52.2531 8.83382 49.2104 7.43471 45.7125C6.03382 42.2146 5.33337 38.4771 5.33337 34.5C5.33337 30.5229 6.03382 26.7854 7.43471 23.2875C8.83382 19.7896 10.7334 16.7469 13.1334 14.1594C15.5334 11.5719 18.3556 9.52296 21.6 8.01262C24.8445 6.50421 28.3112 5.75 32 5.75C35.6889 5.75 39.1556 6.50421 42.4 8.01262C45.6445 9.52296 48.4667 11.5719 50.8667 14.1594C53.2667 16.7469 55.1663 19.7896 56.5654 23.2875C57.9663 26.7854 58.6667 30.5229 58.6667 34.5C58.6667 38.4771 57.9663 42.2146 56.5654 45.7125C55.1663 49.2104 53.2667 52.2531 50.8667 54.8406C48.4667 57.4281 45.6445 59.4761 42.4 60.9845C39.1556 62.4948 35.6889 63.25 32 63.25Z" fill="black"/>
</svg>
