<svg width="223" height="230" viewBox="0 0 223 230" fill="none" xmlns="http://www.w3.org/2000/svg">
<path d="M181.295 33.661L167.393 19.3574L153.491 33.661L139.589 19.3574L125.687 33.661L111.786 19.3574L97.8839 33.661L83.9821 19.3574L70.0804 33.661L56.1786 19.3574L42.2768 33.661L28.375 19.3574V210.072L42.2768 195.768L56.1786 210.072L70.0804 195.768L83.9821 210.072L97.8839 195.768L111.786 210.072L125.687 195.768L139.589 210.072L153.491 195.768L167.393 210.072L181.295 195.768L195.196 210.072V19.3574L181.295 33.661ZM176.661 181.465H46.9107V47.9646H176.661V181.465ZM56.1786 143.322H167.393V162.393H56.1786M56.1786 105.179H167.393V124.25H56.1786M56.1786 67.036H167.393V86.1074H56.1786V67.036Z" fill="black"/>
</svg>
