<svg width="171" height="185" viewBox="0 0 171 185" fill="none" xmlns="http://www.w3.org/2000/svg">
<g clip-path="url(#clip0_29_90)">
<path d="M93 92.125V46H33V92.125H3V145.938H123V92.125H93ZM55.5 138.25H10.5V99.8125H25.5V107.5H40.5V99.8125H55.5V138.25ZM40.5 92.125V53.6875H55.5V61.375H70.5V53.6875H85.5V92.125H40.5ZM115.5 138.25H70.5V99.8125H85.5V107.5H100.5V99.8125H115.5V138.25ZM3 169H25.5V161.312H100.5V169H123V153.625H3V169Z" fill="black"/>
</g>
<path d="M136.333 164.875H141.667V153.375H152.333V147.625H141.667V136.125H136.333V147.625H125.667V153.375H136.333V164.875ZM139 179.25C135.311 179.25 131.844 178.495 128.6 176.984C125.356 175.476 122.533 173.428 120.133 170.841C117.733 168.253 115.834 165.21 114.435 161.712C113.034 158.215 112.333 154.477 112.333 150.5C112.333 146.523 113.034 142.785 114.435 139.288C115.834 135.79 117.733 132.747 120.133 130.159C122.533 127.572 125.356 125.523 128.6 124.013C131.844 122.504 135.311 121.75 139 121.75C142.689 121.75 146.156 122.504 149.4 124.013C152.644 125.523 155.467 127.572 157.867 130.159C160.267 132.747 162.166 135.79 163.565 139.288C164.966 142.785 165.667 146.523 165.667 150.5C165.667 154.477 164.966 158.215 163.565 161.712C162.166 165.21 160.267 168.253 157.867 170.841C155.467 173.428 152.644 175.476 149.4 176.984C146.156 178.495 142.689 179.25 139 179.25Z" fill="black"/>
<defs>
<clipPath id="clip0_29_90">
<rect width="120" height="123" fill="white" transform="translate(3 46)"/>
</clipPath>
</defs>
</svg>
