<svg width="217" height="234" viewBox="0 0 217 234" fill="none" xmlns="http://www.w3.org/2000/svg">
<g clip-path="url(#clip0_29_46)">
<path fill-rule="evenodd" clip-rule="evenodd" d="M36.8276 49.1283C36.8276 41.4142 39.6601 34.0162 44.702 28.5615C49.7438 23.1069 56.5821 20.0425 63.7123 20.0425H153.328C160.458 20.0425 167.297 23.1069 172.338 28.5615C177.38 34.0162 180.213 41.4142 180.213 49.1283V204.252C180.212 206.079 179.734 207.867 178.835 209.412C177.935 210.958 176.651 212.197 175.129 212.987C173.607 213.777 171.91 214.086 170.233 213.879C168.557 213.672 166.968 212.956 165.65 211.815L148.847 197.272L132.044 211.815C130.323 213.307 128.153 214.06 125.951 213.929C123.748 213.798 121.668 212.794 120.107 211.107L108.52 198.571L96.9329 211.107C95.3736 212.795 93.2937 213.802 91.0912 213.934C88.8888 214.066 86.7186 213.315 84.9961 211.824L68.1931 197.272L51.3902 211.815C50.0726 212.956 48.4838 213.672 46.8069 213.879C45.1299 214.086 43.4329 213.777 41.9113 212.987C40.3896 212.197 39.1051 210.958 38.2058 209.412C37.3064 207.867 36.8287 206.079 36.8276 204.252V49.1283ZM63.7123 39.433C61.3356 39.433 59.0562 40.4545 57.3756 42.2727C55.6949 44.0909 54.7508 46.5569 54.7508 49.1283V184.086L62.5921 177.3C64.1816 175.923 66.157 175.173 68.1931 175.173C70.2292 175.173 72.2047 175.923 73.7941 177.3L89.9249 191.261L102.184 178.007C103.865 176.19 106.144 175.169 108.52 175.169C110.896 175.169 113.175 176.19 114.856 178.007L127.106 191.261L143.246 177.3C144.836 175.923 146.811 175.173 148.847 175.173C150.883 175.173 152.859 175.923 154.448 177.3L162.29 184.086V49.1283C162.29 46.5569 161.345 44.0909 159.665 42.2727C157.984 40.4545 155.705 39.433 153.328 39.433H63.7123ZM72.6739 87.9093C72.6739 85.338 73.6181 82.872 75.2987 81.0537C76.9793 79.2355 79.2587 78.2141 81.6355 78.2141H135.405C137.782 78.2141 140.061 79.2355 141.742 81.0537C143.422 82.872 144.366 85.338 144.366 87.9093C144.366 90.4807 143.422 92.9467 141.742 94.7649C140.061 96.5831 137.782 97.6046 135.405 97.6046H81.6355C79.2587 97.6046 76.9793 96.5831 75.2987 94.7649C73.6181 92.9467 72.6739 90.4807 72.6739 87.9093ZM81.6355 116.995C79.2587 116.995 76.9793 118.017 75.2987 119.835C73.6181 121.653 72.6739 124.119 72.6739 126.69C72.6739 129.262 73.6181 131.728 75.2987 133.546C76.9793 135.364 79.2587 136.386 81.6355 136.386H108.52C110.897 136.386 113.176 135.364 114.857 133.546C116.538 131.728 117.482 129.262 117.482 126.69C117.482 124.119 116.538 121.653 114.857 119.835C113.176 118.017 110.897 116.995 108.52 116.995H81.6355Z" fill="black"/>
</g>
<defs>
<clipPath id="clip0_29_46">
<rect width="215.078" height="232.686" fill="white" transform="translate(0.981445 0.6521)"/>
</clipPath>
</defs>
</svg>
