<svg width="152" height="144" viewBox="0 0 152 144" fill="none" xmlns="http://www.w3.org/2000/svg">
<path d="M60.3645 63.2174H76.0035C77.6626 63.2174 79.2537 62.5892 80.4269 61.4709C81.6 60.3527 82.2591 58.8361 82.2591 57.2547C82.2591 55.6732 81.6 54.1566 80.4269 53.0384C79.2537 51.9201 77.6626 51.2919 76.0035 51.2919H69.7479V48.3106C69.7479 46.7291 69.0888 45.2125 67.9157 44.0943C66.7425 42.976 65.1514 42.3478 63.4923 42.3478C61.8332 42.3478 60.2421 42.976 59.0689 44.0943C57.8958 45.2125 57.2367 46.7291 57.2367 48.3106V51.5901C53.436 52.3257 50.0576 54.3812 47.7573 57.3576C45.4571 60.334 44.3992 64.0188 44.789 67.6969C45.1788 71.3749 46.9884 74.7837 49.8666 77.2615C52.7448 79.7393 56.4862 81.1093 60.3645 81.1056H66.6201C67.4497 81.1056 68.2452 81.4197 68.8318 81.9788C69.4184 82.5379 69.7479 83.2963 69.7479 84.087C69.7479 84.8777 69.4184 85.636 68.8318 86.1951C68.2452 86.7542 67.4497 87.0683 66.6201 87.0683H50.9811C49.322 87.0683 47.7309 87.6965 46.5578 88.8148C45.3846 89.933 44.7255 91.4496 44.7255 93.0311C44.7255 94.6125 45.3846 96.1291 46.5578 97.2474C47.7309 98.3656 49.322 98.9938 50.9811 98.9938H57.2367V101.975C57.2367 103.557 57.8958 105.073 59.0689 106.191C60.2421 107.31 61.8332 107.938 63.4923 107.938C65.1514 107.938 66.7425 107.31 67.9157 106.191C69.0888 105.073 69.7479 103.557 69.7479 101.975V98.6957C73.5487 97.96 76.9271 95.9045 79.2273 92.9281C81.5275 89.9517 82.5854 86.2669 82.1956 82.5888C81.8059 78.9108 79.9962 75.502 77.118 73.0242C74.2398 70.5464 70.4984 69.1764 66.6201 69.1801H60.3645C59.535 69.1801 58.7394 68.866 58.1528 68.3069C57.5663 67.7478 57.2367 66.9895 57.2367 66.1988C57.2367 65.408 57.5663 64.6497 58.1528 64.0906C58.7394 63.5315 59.535 63.2174 60.3645 63.2174ZM132.304 72.1615H113.537V18.4969C113.541 17.4462 113.254 16.4131 112.705 15.5021C112.156 14.5911 111.364 13.8347 110.409 13.3093C109.458 12.786 108.38 12.5105 107.281 12.5105C106.183 12.5105 105.105 12.786 104.154 13.3093L85.3869 23.5652L66.6201 13.3093C65.6691 12.786 64.5904 12.5105 63.4923 12.5105C62.3942 12.5105 61.3155 12.786 60.3645 13.3093L41.5977 23.5652L22.831 13.3093C21.88 12.786 20.8012 12.5105 19.7032 12.5105C18.6051 12.5105 17.5263 12.786 16.5754 13.3093C15.6207 13.8347 14.8287 14.5911 14.2794 15.5021C13.7302 16.4131 13.4432 17.4462 13.4476 18.4969V113.901C13.4476 118.645 15.4248 123.195 18.9442 126.549C22.4637 129.904 27.2371 131.789 32.2143 131.789H119.793C124.77 131.789 129.543 129.904 133.063 126.549C136.582 123.195 138.559 118.645 138.559 113.901V78.1242C138.559 76.5428 137.9 75.0262 136.727 73.9079C135.554 72.7897 133.963 72.1615 132.304 72.1615ZM32.2143 119.863C30.5553 119.863 28.9641 119.235 27.791 118.117C26.6178 116.999 25.9587 115.482 25.9587 113.901V28.8124L38.4699 35.6099C39.4354 36.0906 40.5085 36.3416 41.5977 36.3416C42.687 36.3416 43.7601 36.0906 44.7255 35.6099L63.4923 25.354L82.2591 35.6099C83.2246 36.0906 84.2977 36.3416 85.3869 36.3416C86.4761 36.3416 87.5492 36.0906 88.5147 35.6099L101.026 28.8124V113.901C101.043 115.935 101.424 117.951 102.152 119.863H32.2143ZM126.048 113.901C126.048 115.482 125.389 116.999 124.216 118.117C123.043 119.235 121.452 119.863 119.793 119.863C118.134 119.863 116.542 119.235 115.369 118.117C114.196 116.999 113.537 115.482 113.537 113.901V84.087H126.048V113.901Z" fill="black"/>
</svg>
