<svg width="188" height="180" viewBox="0 0 188 180" fill="none" xmlns="http://www.w3.org/2000/svg">
<path d="M74.4167 78.75H94C96.0775 78.75 98.07 77.9598 99.539 76.5533C101.008 75.1468 101.833 73.2391 101.833 71.25C101.833 69.2609 101.008 67.3532 99.539 65.9467C98.07 64.5402 96.0775 63.75 94 63.75H86.1667V60C86.1667 58.0109 85.3414 56.1032 83.8724 54.6967C82.4033 53.2902 80.4109 52.5 78.3333 52.5C76.2558 52.5 74.2634 53.2902 72.7944 54.6967C71.3253 56.1032 70.5 58.0109 70.5 60V64.125C65.7407 65.0503 61.5102 67.6358 58.6298 71.3795C55.7495 75.1232 54.4248 79.7581 54.9128 84.3844C55.4009 89.0107 57.6669 93.2983 61.271 96.4149C64.8752 99.5315 69.5602 101.255 74.4167 101.25H82.25C83.2888 101.25 84.285 101.645 85.0195 102.348C85.754 103.052 86.1667 104.005 86.1667 105C86.1667 105.995 85.754 106.948 85.0195 107.652C84.285 108.355 83.2888 108.75 82.25 108.75H62.6667C60.5892 108.75 58.5967 109.54 57.1277 110.947C55.6587 112.353 54.8334 114.261 54.8334 116.25C54.8334 118.239 55.6587 120.147 57.1277 121.553C58.5967 122.96 60.5892 123.75 62.6667 123.75H70.5V127.5C70.5 129.489 71.3253 131.397 72.7944 132.803C74.2634 134.21 76.2558 135 78.3333 135C80.4109 135 82.4033 134.21 83.8724 132.803C85.3414 131.397 86.1667 129.489 86.1667 127.5V123.375C90.926 122.45 95.1565 119.864 98.0369 116.121C100.917 112.377 102.242 107.742 101.754 103.116C101.266 98.4894 98.9998 94.2018 95.3957 91.0852C91.7915 87.9686 87.1065 86.2454 82.25 86.25H74.4167C73.3779 86.25 72.3817 85.8549 71.6472 85.1517C70.9127 84.4484 70.5 83.4946 70.5 82.5C70.5 81.5055 70.9127 80.5516 71.6472 79.8484C72.3817 79.1451 73.3779 78.75 74.4167 78.75ZM164.5 90H141V22.5C141.005 21.1784 140.646 19.879 139.958 18.7331C139.271 17.5873 138.279 16.6358 137.083 15.975C135.893 15.3168 134.542 14.9702 133.167 14.9702C131.792 14.9702 130.441 15.3168 129.25 15.975L105.75 28.875L82.25 15.975C81.0592 15.3168 79.7084 14.9702 78.3333 14.9702C76.9583 14.9702 75.6075 15.3168 74.4167 15.975L50.9167 28.875L27.4167 15.975C26.2259 15.3168 24.8751 14.9702 23.5 14.9702C22.125 14.9702 20.7742 15.3168 19.5834 15.975C18.388 16.6358 17.3961 17.5873 16.7084 18.7331C16.0206 19.879 15.6612 21.1784 15.6667 22.5V142.5C15.6667 148.467 18.1426 154.19 22.5497 158.41C26.9568 162.63 32.9341 165 39.1667 165H148.833C155.066 165 161.043 162.63 165.45 158.41C169.857 154.19 172.333 148.467 172.333 142.5V97.5C172.333 95.5109 171.508 93.6033 170.039 92.1967C168.57 90.7902 166.578 90 164.5 90ZM39.1667 150C37.0892 150 35.0967 149.21 33.6277 147.803C32.1587 146.397 31.3334 144.489 31.3334 142.5V35.475L47 44.025C48.209 44.6296 49.5527 44.9454 50.9167 44.9454C52.2806 44.9454 53.6244 44.6296 54.8334 44.025L78.3333 31.125L101.833 44.025C103.042 44.6296 104.386 44.9454 105.75 44.9454C107.114 44.9454 108.458 44.6296 109.667 44.025L125.333 35.475V142.5C125.355 145.059 125.831 147.595 126.743 150H39.1667ZM156.667 142.5C156.667 144.489 155.841 146.397 154.372 147.803C152.903 149.21 150.911 150 148.833 150C146.756 150 144.763 149.21 143.294 147.803C141.825 146.397 141 144.489 141 142.5V105H156.667V142.5Z" fill="black"/>
</svg>
